<?xml version="1.0" encoding="UTF-8"?>
<svg xmlns="http://www.w3.org/2000/svg" xmlns:xlink="http://www.w3.org/1999/xlink" width="24pt" height="24pt"
  viewBox="0 0 24 24" version="1.1">
  <g id="surface1">
    <path style=" stroke:none;fill-rule:nonzero;fill:rgb(25.882353%,52.156863%,95.686275%);fill-opacity:1;"
      d="M 23.988281 12.222656 C 23.988281 11.242188 23.90625 10.523438 23.730469 9.78125 L 12.238281 9.78125 L 12.238281 14.21875 L 18.984375 14.21875 C 18.847656 15.320312 18.113281 16.980469 16.480469 18.097656 L 16.457031 18.246094 L 20.089844 20.996094 L 20.34375 21.019531 C 22.65625 18.933594 23.988281 15.867188 23.988281 12.222656 " />
    <path style=" stroke:none;fill-rule:nonzero;fill:rgb(20.392157%,65.882353%,32.54902%);fill-opacity:1;"
      d="M 12.238281 23.917969 C 15.542969 23.917969 18.316406 22.855469 20.34375 21.019531 L 16.480469 18.097656 C 15.449219 18.800781 14.0625 19.292969 12.238281 19.292969 C 9.003906 19.292969 6.257812 17.207031 5.277344 14.324219 L 5.132812 14.335938 L 1.355469 17.191406 L 1.304688 17.328125 C 3.320312 21.234375 7.453125 23.917969 12.238281 23.917969 " />
    <path style=" stroke:none;fill-rule:nonzero;fill:rgb(98.431373%,73.72549%,1.960784%);fill-opacity:1;"
      d="M 5.277344 14.324219 C 5.019531 13.578125 4.871094 12.78125 4.871094 11.957031 C 4.871094 11.136719 5.019531 10.335938 5.261719 9.59375 L 5.257812 9.433594 L 1.433594 6.53125 L 1.304688 6.589844 C 0.476562 8.210938 0 10.03125 0 11.957031 C 0 13.886719 0.476562 15.707031 1.304688 17.328125 L 5.277344 14.324219 " />
    <path style=" stroke:none;fill-rule:nonzero;fill:rgb(92.156863%,26.27451%,20.784314%);fill-opacity:1;"
      d="M 12.238281 4.625 C 14.535156 4.625 16.085938 5.59375 16.972656 6.40625 L 20.425781 3.109375 C 18.304688 1.183594 15.542969 0 12.238281 0 C 7.453125 0 3.320312 2.683594 1.304688 6.589844 L 5.261719 9.59375 C 6.257812 6.710938 9.003906 4.625 12.238281 4.625 " />
  </g>
</svg>