<svg height="480pt" viewBox="-48 0 480 480" width="480pt" xmlns="http://www.w3.org/2000/svg"><path d="m8 136v62.761719c0 32.699219 4.007812 65.28125 11.945312 97.007812l.109376.460938c7.9375 31.726562 11.945312 64.308593 11.945312 97.007812v46.761719c0 17.671875 14.328125 32 32 32h160c17.671875 0 32-14.328125 32-32v-46.761719c0-32.699219 4.007812-65.28125 11.945312-97.007812l.109376-.460938c7.9375-31.726562 11.945312-64.308593 11.945312-97.007812v-62.761719zm0 0" fill="#cfcfcf"/><path d="m40 136v62.761719c0 32.699219 4.007812 65.28125 11.945312 97.007812l.109376.460938c7.9375 31.726562 11.945312 64.308593 11.945312 97.007812v46.761719h160v-46.761719c0-32.699219 4.007812-65.28125 11.945312-97.007812l.109376-.460938c7.9375-31.726562 11.945312-64.308593 11.945312-97.007812v-62.761719zm0 0" fill="#f9e1bb"/><path d="m40 184h208v14.761719c0 32.699219-4.007812 65.28125-11.945312 97.007812l-.109376.460938c-7.9375 31.726562-11.945312 64.308593-11.945312 97.007812v46.761719h-160v-46.761719c0-32.699219-4.007812-65.28125-11.945312-97.007812l-.109376-.460938c-7.9375-31.726562-11.945312-64.308593-11.945312-97.007812zm0 0" fill="#7d605a"/><path d="m232 104h-16c8.835938 0 16-7.164062 16-16s-7.164062-16-16-16h-16c8.835938 0 16-7.164062 16-16s-7.164062-16-16-16h-32c0-17.671875-14.328125-32-32-32 0 17.671875-14.328125 32-32 32h-16c-8.835938 0-16 7.164062-16 16s7.164062 16 16 16h-16c-8.835938 0-16 7.164062-16 16s7.164062 16 16 16h-16c-8.835938 0-16 7.164062-16 16s7.164062 16 16 16h176c8.835938 0 16-7.164062 16-16s-7.164062-16-16-16zm0 0" fill="#fcf0dd"/><path d="m280 216v-32h48c26.507812 0 48 21.492188 48 48v96c0 53.019531-42.980469 96-96 96h-24v-32h24c35.347656 0 64-28.652344 64-64v-96c0-8.835938-7.164062-16-16-16zm0 0" fill="#afaab0"/><path d="m64 417.089844v22.910156h160v-46.761719c0-32.699219 4.007812-65.28125 11.945312-97.007812l.109376-.460938c4.15625-16.734375 7.230468-33.714843 9.203124-50.839843-43.777343 72.691406-106.410156 132.179687-181.257812 172.160156zm0 0" fill="#5e4844"/><path d="m328 176h-40v-40c0-4.417969-3.582031-8-8-8h-25.472656c.949218-2.5625 1.445312-5.269531 1.472656-8-.015625-10.820312-7.253906-20.296875-17.6875-23.160156 2.515625-6.347656 2.210938-13.46875-.84375-19.578125s-8.566406-10.625-15.15625-12.421875c2.925781-7.390625 2.007812-15.75-2.460938-22.328125-4.46875-6.574219-11.902343-10.511719-19.851562-10.511719h-24.800781c-3.824219-18.613281-20.199219-31.9804688-39.199219-32-4.417969 0-8 3.582031-8 8 0 13.253906-10.746094 24-24 24h-16c-7.949219 0-15.382812 3.9375-19.851562 10.511719-4.46875 6.578125-5.386719 14.9375-2.460938 22.328125-6.589844 1.796875-12.101562 6.3125-15.15625 12.421875s-3.359375 13.230469-.84375 19.578125c-10.433594 2.863281-17.671875 12.339844-17.6875 23.160156.027344 2.730469.523438 5.4375 1.472656 8h-25.472656c-4.417969 0-8 3.582031-8 8v62.761719c.015625 33.511719 4.144531 66.898437 12.296875 99.40625 7.769531 31.09375 11.703125 63.023437 11.703125 95.070312v46.761719c.027344 22.082031 17.917969 39.972656 40 40h160c22.082031-.027344 39.972656-17.917969 40-40v-8h16c57.410156-.066406 103.933594-46.589844 104-104v-96c-.035156-30.914062-25.085938-55.964844-56-56zm-52.183594 121.710938c6.035156-24.171876 9.84375-48.84375 11.382813-73.710938h40.800781c4.417969 0 8 3.582031 8 8v96c-.035156 30.914062-25.085938 55.964844-56 56h-15.710938c.636719-29.101562 4.5-58.039062 11.527344-86.289062zm-35.816406-121.710938h-192v-32h192zm-180.296875 117.832031c-7.769531-31.09375-11.703125-63.023437-11.703125-95.070312v-6.761719h192v6.761719c-.011719 32.203125-3.980469 64.289062-11.816406 95.527343-8.085938 32.363282-12.179688 65.59375-12.183594 98.949219v38.761719h-144v-38.761719c-.015625-33.511719-4.144531-66.898437-12.296875-99.40625zm-3.703125-181.832031h24c4.417969 0 8-3.582031 8-8s-3.582031-8-8-8h-8c-4.417969 0-8-3.582031-8-8s3.582031-8 8-8h88c4.417969 0 8-3.582031 8-8s-3.582031-8-8-8h-72c-4.417969 0-8-3.582031-8-8s3.582031-8 8-8h16c18.605469-.023438 34.746094-12.851562 38.96875-30.96875 10.109375 3.082031 17.019531 12.402344 17.03125 22.96875 0 4.417969 3.582031 8 8 8h32c4.417969 0 8 3.582031 8 8s-3.582031 8-8 8h-8c-4.417969 0-8 3.582031-8 8s3.582031 8 8 8h24c4.417969 0 8 3.582031 8 8s-3.582031 8-8 8h-72c-4.417969 0-8 3.582031-8 8s3.582031 8 8 8h88c4.417969 0 8 3.582031 8 8s-3.582031 8-8 8h-176c-4.417969 0-8-3.582031-8-8s3.582031-8 8-8zm192 328c0 13.253906-10.746094 24-24 24h-160c-13.253906 0-24-10.746094-24-24v-46.761719c-.015625-33.511719-4.144531-66.898437-12.296875-99.40625-7.769531-31.09375-11.703125-63.023437-11.703125-95.070312v-54.761719h16v54.761719c.015625 33.511719 4.144531 66.898437 12.296875 99.40625 7.769531 31.09375 11.703125 63.023437 11.703125 95.070312v46.761719c0 4.417969 3.582031 8 8 8h160c4.417969 0 8-3.582031 8-8v-46.761719c.011719-32.203125 3.980469-64.289062 11.816406-95.527343 8.085938-32.363282 12.179688-65.59375 12.183594-98.949219v-54.761719h16v54.761719c-.011719 32.203125-3.980469 64.289062-11.816406 95.527343-7.957032 31.886719-12.03125 64.621094-12.136719 97.488282-.019531.074218-.035156.148437-.046875.222656zm120-112c-.058594 48.578125-39.421875 87.941406-88 88h-16v-16h16c39.746094-.042969 71.957031-32.253906 72-72v-96c0-13.253906-10.746094-24-24-24h-40v-16h40c22.082031.027344 39.972656 17.917969 40 40zm0 0"/></svg>