<?xml version="1.0" encoding="iso-8859-1"?>
<!-- Generator: Adobe Illustrator 19.0.0, SVG Export Plug-In . SVG Version: 6.00 Build 0)  -->
<svg version="1.1" id="Capa_1" xmlns="http://www.w3.org/2000/svg" xmlns:xlink="http://www.w3.org/1999/xlink" x="0px" y="0px"
	 viewBox="0 0 480 480" style="enable-background:new 0 0 480 480;" xml:space="preserve">
<path style="fill:#6CBBC7;" d="M8,383.313h464c0,26.51-21.49,48-48,48H56C29.49,431.313,8,409.823,8,383.313z"/>
<path style="fill:#A65A14;" d="M32,263.313c0,70.696,57.304,120,128,120h176c35.346,0,64-28.654,64-64c0-106.039-85.961-192-192-192
	h-48C89.304,127.313,32,192.617,32,263.313z"/>
<path style="fill:#FADBB7;" d="M392,127.313l-16,16l-24-24l16-16c4.418-4.417,4.419-11.579,0.002-15.998
	c-0.001-0.001-0.002-0.002-0.002-0.002c-8.837-8.834-8.839-23.159-0.005-31.995c0.002-0.002,0.003-0.003,0.005-0.005
	c8.834-8.837,23.159-8.839,31.995-0.005c0.002,0.002,0.003,0.003,0.005,0.005l1.376,1.376c4.243,4.244,6.625,9.999,6.624,16v14.624
	h14.624c6.001-0.001,11.756,2.381,16,6.624L440,95.313c8.837,8.834,8.839,23.159,0.005,31.995c-0.002,0.002-0.003,0.003-0.005,0.005
	c-8.834,8.837-23.159,8.839-31.995,0.005c-0.002-0.002-0.003-0.003-0.005-0.005c-4.417-4.418-11.579-4.419-15.998-0.002
	C392.002,127.311,392.001,127.312,392,127.313z"/>
<path style="fill:#E47700;" d="M168,243.313c0,46.392,37.608,84,84,84h8c46.392,0,84-37.608,84-84v-29.944
	c0.001-9.002,3.578-17.635,9.944-24L368,175.313c13.253-13.255,13.253-34.745,0-48c-13.255-13.253-34.745-13.253-48,0
	l-22.056,22.056c-6.365,6.366-14.998,9.943-24,9.944H252C205.608,159.313,168,196.921,168,243.313L168,243.313z"/>
<path d="M472,375.313h-90.848c16.969-13.637,26.843-34.23,26.848-56c-0.048-46.341-16.224-91.221-45.752-126.936l11.408-11.408
	c9.325-9.376,13.66-22.613,11.688-35.688l12.312-12.312c0.846-1.295,2.581-1.658,3.876-0.812c0.324,0.212,0.601,0.488,0.812,0.812
	c11.96,11.96,31.352,11.96,43.312,0c11.96-11.96,11.96-31.352,0-43.312l-1.368-1.368c-5.728-5.767-13.528-9-21.656-8.976H416v-6.632
	c0.024-8.128-3.209-15.928-8.976-21.656l-1.368-1.368c-11.96-11.96-31.352-11.96-43.312,0c-11.96,11.96-11.96,31.352,0,43.312
	c1.292,1.296,1.292,3.392,0,4.688l-12.312,12.312c-13.075-1.972-26.312,2.363-35.688,11.688l-18.224,18.216
	c-27.423-13.479-57.564-20.512-88.12-20.56h-48c-72.448,0-136,67.288-136,144c-0.411,47.29,26.066,90.712,68.296,112H8
	c-4.418,0-8,3.582-8,8c0.035,30.913,25.087,55.965,56,56h368c30.913-0.035,55.965-25.087,56-56
	C480,378.895,476.418,375.313,472,375.313L472,375.313z M373.656,81.657c-5.59-5.836-5.391-15.098,0.445-20.688
	c5.659-5.421,14.584-5.421,20.243,0l1.368,1.368c2.753,2.738,4.296,6.462,4.288,10.344v22.632h22.632
	c3.882-0.008,7.606,1.535,10.344,4.288l1.368,1.368c5.59,5.836,5.391,15.098-0.445,20.688c-5.659,5.421-14.584,5.421-20.243,0
	c-7.547-7.529-19.765-7.529-27.312,0l-7.064,7.064c-3.214-5.136-7.552-9.474-12.688-12.688l7.064-7.064
	C381.185,101.422,381.185,89.204,373.656,81.657L373.656,81.657z M325.656,132.969c10.246-10.016,26.672-9.83,36.688,0.416
	c9.856,10.082,9.856,26.19,0,36.272l-10.488,10.456l-0.392-0.44l-4.952,6.096c-0.144,0.184-0.32,0.36-0.464,0.544l-0.48,0.616
	l-0.056,0.064c-6.097,7.443-9.455,16.754-9.512,26.376v29.944c-0.048,41.954-34.046,75.952-76,76h-8c-41.974,0-76-34.026-76-76
	s34.026-76,76-76h21.944c10.639-0.007,20.871-4.089,28.592-11.408l0.184-0.176c0.184-0.176,0.408-0.296,0.592-0.48l7.792-7.664
	l-0.12-0.064L325.656,132.969z M40,263.313c0-68.184,56.072-128,120-128h48c25.004,0.02,49.744,5.118,72.72,14.984
	c-0.376,0.104-0.728,0.248-1.112,0.336s-0.8,0.176-1.2,0.248c-1.475,0.273-2.972,0.418-4.472,0.432H252c-50.81,0-92,41.19-92,92
	s41.19,92,92,92h8c50.786-0.057,91.943-41.214,92-92v-29.944c0.009-1.341,0.129-2.679,0.36-4c0.072-0.432,0.2-0.856,0.288-1.288
	c0.136-0.608,0.312-1.208,0.488-1.808c25.195,32.293,38.874,72.081,38.864,113.04c-0.035,30.913-25.087,55.965-56,56H160
	C91.592,375.313,40,327.161,40,263.313L40,263.313z M424,423.313H56c-19.001-0.024-35.373-13.389-39.2-32h446.4
	C459.373,409.924,443.001,423.289,424,423.313L424,423.313z"/>
<g>
</g>
<g>
</g>
<g>
</g>
<g>
</g>
<g>
</g>
<g>
</g>
<g>
</g>
<g>
</g>
<g>
</g>
<g>
</g>
<g>
</g>
<g>
</g>
<g>
</g>
<g>
</g>
<g>
</g>
</svg>
