<?xml version="1.0" encoding="iso-8859-1"?>
<!-- Generator: Adobe Illustrator 19.0.0, SVG Export Plug-In . SVG Version: 6.00 Build 0)  -->
<svg version="1.1" id="Capa_1" xmlns="http://www.w3.org/2000/svg" xmlns:xlink="http://www.w3.org/1999/xlink" x="0px" y="0px"
	 viewBox="0 0 480 480" style="enable-background:new 0 0 480 480;" xml:space="preserve">
<g>
	<path style="fill:#FADBB7;" d="M16,297.776C16,332.141,43.859,360,78.224,360h99.552C212.141,360,240,332.141,240,297.776
		c0.001-16.503-6.555-32.33-18.224-44L195.88,227.88c-37.489-37.491-98.273-37.493-135.765-0.004
		c-0.001,0.001-0.002,0.002-0.004,0.004l-25.888,25.896C22.555,265.446,15.999,281.273,16,297.776z"/>
	<path style="fill:#FADBB7;" d="M240,297.776C240,332.141,267.859,360,302.224,360h99.552C436.141,360,464,332.141,464,297.776
		c0.001-16.503-6.555-32.33-18.224-44L419.88,227.88c-37.489-37.491-98.273-37.493-135.764-0.004
		c-0.001,0.001-0.002,0.002-0.004,0.004l-25.896,25.896C246.55,265.447,239.997,281.274,240,297.776z"/>
</g>
<g>
	<path style="fill:#FCE9CC;" d="M136,168.232h144c8.837,0,16-7.163,16-16s-7.163-16-16-16h-8c-8.837,0-16-7.163-16-16
		s7.163-16,16-16h72c8.837,0,16-7.163,16-16s-7.163-16-16-16H192c-8.837,0-16,7.163-16,16s7.163,16,16,16h16c8.837,0,16,7.163,16,16
		s-7.163,16-16,16h-72c-8.837,0-16,7.163-16,16S127.163,168.232,136,168.232z"/>
	<path style="fill:#FCE9CC;" d="M408,72h48c8.837,0,16,7.163,16,16l0,0c0,8.837-7.163,16-16,16h-48c-8.837,0-16-7.163-16-16l0,0
		C392,79.163,399.163,72,408,72z"/>
</g>
<path style="fill:#FDB62F;" d="M8,360h464c0,26.51-21.49,48-48,48H56C29.49,408,8,386.51,8,360z"/>
<path d="M136,176.232h144c13.255,0,24-10.745,24-24s-10.745-24-24-24h-8c-4.418,0-8-3.582-8-8s3.582-8,8-8h72
	c13.255,0,24-10.745,24-24s-10.745-24-24-24H192c-13.255,0-24,10.745-24,24s10.745,24,24,24h16c4.418,0,8,3.582,8,8s-3.582,8-8,8
	h-72c-13.255,0-24,10.745-24,24S122.745,176.232,136,176.232z M136,144.232h72c13.255,0,24-10.745,24-24s-10.745-24-24-24h-16
	c-4.418,0-8-3.582-8-8s3.582-8,8-8h152c4.418,0,8,3.582,8,8s-3.582,8-8,8h-72c-13.255,0-24,10.745-24,24s10.745,24,24,24h8
	c4.418,0,8,3.582,8,8s-3.582,8-8,8H136c-4.418,0-8-3.582-8-8S131.582,144.232,136,144.232z"/>
<path d="M408,112h48c13.255,0,24-10.745,24-24s-10.745-24-24-24h-48c-13.255,0-24,10.745-24,24S394.745,112,408,112z M408,80h48
	c4.418,0,8,3.582,8,8s-3.582,8-8,8h-48c-4.418,0-8-3.582-8-8S403.582,80,408,80z"/>
<path d="M472,352h-25.656c29.957-24.591,34.307-68.81,9.716-98.767c-1.461-1.779-3.008-3.486-4.636-5.113l-25.888-25.888
	c-40.642-40.55-106.438-40.55-147.08,0l-25.888,25.888c-5.028,5.026-9.265,10.785-12.568,17.08
	c-3.302-6.298-7.54-12.059-12.568-17.088l-25.888-25.888c-40.642-40.55-106.438-40.55-147.08,0L28.568,248.12
	c-27.413,27.398-27.424,71.831-0.026,99.244c1.627,1.628,3.334,3.176,5.114,4.636H8c-4.418,0-8,3.582-8,8
	c0.035,30.913,25.087,55.965,56,56h368c30.913-0.035,55.965-25.087,56-56C480,355.582,476.418,352,472,352L472,352z M263.88,259.432
	l25.888-25.888c9.374-9.37,20.757-16.483,33.288-20.8c-7.088,7.397-11.048,17.243-11.056,27.488v8h16v-8
	c0.042-10.134,6.445-19.15,16-22.528v30.528h16v-30.52c9.555,3.378,15.958,12.394,16,22.528v8h16v-8
	c-0.02-10.228-3.98-20.055-11.056-27.44c12.531,4.317,23.914,11.43,33.288,20.8l25.888,25.888
	c21.146,21.206,21.097,55.538-0.108,76.684c-10.152,10.123-23.899,15.814-38.236,15.828h-99.552
	c-29.947,0.002-54.226-24.273-54.228-54.22C247.995,283.396,253.709,269.602,263.88,259.432L263.88,259.432z M257.656,352h-35.312
	c7.282-6.011,13.286-13.421,17.656-21.792C244.37,338.579,250.374,345.989,257.656,352z M24,297.776
	c-0.04-14.389,5.678-28.196,15.88-38.344l25.888-25.888c9.374-9.37,20.757-16.483,33.288-20.8
	c-7.088,7.397-11.048,17.243-11.056,27.488v8h16v-8c0.042-10.134,6.445-19.15,16-22.528v30.528h16v-30.52
	c9.555,3.378,15.958,12.394,16,22.528v8h16v-8c-0.02-10.228-3.98-20.055-11.056-27.44c12.531,4.317,23.914,11.43,33.288,20.8
	l25.888,25.888c21.146,21.206,21.097,55.538-0.108,76.684c-10.152,10.123-23.899,15.814-38.236,15.828H78.224
	C48.292,351.965,24.035,327.708,24,297.776L24,297.776z M424,400H56c-19.001-0.024-35.373-13.389-39.2-32h446.4
	C459.373,386.611,443.001,399.976,424,400L424,400z"/>
<g>
</g>
<g>
</g>
<g>
</g>
<g>
</g>
<g>
</g>
<g>
</g>
<g>
</g>
<g>
</g>
<g>
</g>
<g>
</g>
<g>
</g>
<g>
</g>
<g>
</g>
<g>
</g>
<g>
</g>
</svg>
