<svg height="480pt" viewBox="0 -31 480 479" width="480pt" xmlns="http://www.w3.org/2000/svg">
  <path d="m408 240.5-24 168h-288l-24-168zm0 0" fill="#8c6239" />
  <path
    d="m92.503906 384.027344 3.496094 24.472656h288l24-168h-58.839844c-67.875 74.222656-157.886718 124.558594-256.65625 143.527344zm0 0"
    fill="#754c24" />
  <path
    d="m40 240.5h400c17.671875 0 32-14.328125 32-32s-14.328125-32-32-32h-16c0-92.785156-75.214844-168-168-168h-32c-92.785156 0-168 75.214844-168 168h-16c-17.671875 0-32 14.328125-32 32s14.328125 32 32 32zm0 0"
    fill="#f6c869" />
  <path
    d="m440 176.5h-16c.003906-51.914062-24.054688-100.902344-65.144531-132.632812-70.152344 102.996093-178.480469 173.765624-300.984375 196.632812h382.128906c17.671875 0 32-14.328125 32-32s-14.328125-32-32-32zm0 0"
    fill="#f1b355" />
  <g fill="#613a25">
    <path
      d="m240 40.5c8.835938 0 16 7.164062 16 16v8c0 8.835938-7.164062 16-16 16s-16-7.164062-16-16v-8c0-8.835938 7.164062-16 16-16zm0 0" />
    <path
      d="m128 96.5h8c8.835938 0 16 7.164062 16 16s-7.164062 16-16 16h-8c-8.835938 0-16-7.164062-16-16s7.164062-16 16-16zm0 0" />
    <path
      d="m192 168.5c8.835938 0 16 7.164062 16 16v8c0 8.835938-7.164062 16-16 16s-16-7.164062-16-16v-8c0-8.835938 7.164062-16 16-16zm0 0" />
    <path
      d="m288 120.5h8c8.835938 0 16 7.164062 16 16s-7.164062 16-16 16h-8c-8.835938 0-16-7.164062-16-16s7.164062-16 16-16zm0 0" />
    <path
      d="m368 168.5c8.835938 0 16 7.164062 16 16v8c0 8.835938-7.164062 16-16 16s-16-7.164062-16-16v-8c0-8.835938 7.164062-16 16-16zm0 0" />
  </g>
  <path
    d="m440 168.5h-8.175781c-4.394531-93.945312-81.777344-167.886719-175.824219-168h-32c-94.046875.113281-171.429688 74.054688-175.824219 168h-8.175781c-22.089844 0-40 17.910156-40 40s17.910156 40 40 40h25.054688l23.023437 161.136719c.566406 3.9375 3.941406 6.863281 7.921875 6.863281h288c3.980469 0 7.355469-2.925781 7.921875-6.863281l23.023437-161.136719h25.054688c22.089844 0 40-17.910156 40-40s-17.910156-40-40-40zm-358.777344 80h31.503906l14.472657 152h-24.261719zm62.050782 152-14.472657-152h31.574219l7.242188 152zm33.117187-152h31.609375v152h-24.367188zm47.609375 152v-152h32v152zm79.609375-152-7.242187 152h-24.367188v-152zm8.796875 152 7.242188-152h31.550781l-14.480469 152zm64.671875 0h-24.277344l14.480469-152h31.503906zm62.921875-168h-400c-13.253906 0-24-10.746094-24-24s10.746094-24 24-24h24v-8c.101562-88.324219 71.675781-159.898438 160-160h32c88.324219.101562 159.898438 71.675781 160 160v8h24c13.253906 0 24 10.746094 24 24s-10.746094 24-24 24zm0 0" />
  <path
    d="m264 56.5c0-13.253906-10.746094-24-24-24s-24 10.746094-24 24v8c0 13.253906 10.746094 24 24 24s24-10.746094 24-24zm-16 8c0 4.417969-3.582031 8-8 8s-8-3.582031-8-8v-8c0-4.417969 3.582031-8 8-8s8 3.582031 8 8zm0 0" />
  <path
    d="m136 88.5h-8c-13.253906 0-24 10.746094-24 24s10.746094 24 24 24h8c13.253906 0 24-10.746094 24-24s-10.746094-24-24-24zm0 32h-8c-4.417969 0-8-3.582031-8-8s3.582031-8 8-8h8c4.417969 0 8 3.582031 8 8s-3.582031 8-8 8zm0 0" />
  <path
    d="m192 160.5c-13.253906 0-24 10.746094-24 24v8c0 13.253906 10.746094 24 24 24s24-10.746094 24-24v-8c0-13.253906-10.746094-24-24-24zm8 32c0 4.417969-3.582031 8-8 8s-8-3.582031-8-8v-8c0-4.417969 3.582031-8 8-8s8 3.582031 8 8zm0 0" />
  <path
    d="m296 112.5h-8c-13.253906 0-24 10.746094-24 24s10.746094 24 24 24h8c13.253906 0 24-10.746094 24-24s-10.746094-24-24-24zm0 32h-8c-4.417969 0-8-3.582031-8-8s3.582031-8 8-8h8c4.417969 0 8 3.582031 8 8s-3.582031 8-8 8zm0 0" />
  <path
    d="m368 160.5c-13.253906 0-24 10.746094-24 24v8c0 13.253906 10.746094 24 24 24s24-10.746094 24-24v-8c0-13.253906-10.746094-24-24-24zm8 32c0 4.417969-3.582031 8-8 8s-8-3.582031-8-8v-8c0-4.417969 3.582031-8 8-8s8 3.582031 8 8zm0 0" />
  <path d="m72 200.5h16v16h-16zm0 0" />
  <path d="m200 120.5h16v16h-16zm0 0" />
  <path d="m280 192.5h16v16h-16zm0 0" />
  <path d="m336 80.5h16v16h-16zm0 0" />
  <path d="m152 48.5h16v16h-16zm0 0" />
</svg>