<?xml version="1.0" encoding="iso-8859-1"?>
<!-- Generator: Adobe Illustrator 19.0.0, SVG Export Plug-In . SVG Version: 6.00 Build 0)  -->
<svg version="1.1" id="Capa_1" xmlns="http://www.w3.org/2000/svg" xmlns:xlink="http://www.w3.org/1999/xlink" x="0px" y="0px"
	 viewBox="0 0 480 480" style="enable-background:new 0 0 480 480;" xml:space="preserve">
<path style="fill:#C7CCD1;" d="M385.052,56h-88v48h72c17.673,0,32,14.327,32,32v134.056c0,45.256-36.688,81.944-81.944,81.944
	h-22.056v48h15.432c75.424,0,136.568-61.144,136.568-136.568l0,0V120C449.052,84.654,420.399,56,385.052,56z"/>
<path style="fill:#FFC261;" d="M49.052,40h256v392h-256V40z"/>
<path style="fill:#C7CCD1;" d="M49.052,424l-15.416,23.128c-4.9,7.354-2.911,17.287,4.443,22.187
	c2.627,1.75,5.713,2.684,8.869,2.685h260.208c8.837-0.002,15.999-7.166,15.997-16.003c-0.001-3.156-0.935-6.242-2.685-8.869
	L305.052,424H49.052z"/>
<path style="fill:#FFDB8B;" d="M321.052,24v64c0,8.837-7.163,16-16,16h-8c-13.255,0-24,10.745-24,24v232c0,17.673-14.327,32-32,32
	s-32-14.327-32-32V128c0-13.255-10.745-24-24-24s-24,10.745-24,24v56c0,17.673-14.327,32-32,32s-32-14.327-32-32v-56
	c0-13.255-10.745-24-24-24h-24c-8.837,0-16-7.163-16-16V24c0-8.837,7.163-16,16-16h256C313.889,8,321.052,15.163,321.052,24z"/>
<path d="M26.98,442.688c-7.352,11.029-4.371,25.93,6.658,33.282c3.942,2.628,8.573,4.03,13.31,4.03h260.208
	c13.255,0.017,24.014-10.715,24.03-23.97c0.006-4.748-1.397-9.391-4.03-13.342L313.052,421.6V408
	c79.628-0.295,144.018-64.939,144-144.568V120c-0.048-39.744-32.256-71.952-72-72h-56V24c0-13.255-10.745-24-24-24h-256
	c-13.255,0-24,10.745-24,24v64c0.042,10.134,6.445,19.15,16,22.528V421.6L26.98,442.688z M57.052,112h16c8.837,0,16,7.163,16,16v56
	c0,22.091,17.909,40,40,40s40-17.909,40-40v-56c0-8.837,7.163-16,16-16s16,7.163,16,16v232c0,22.091,17.909,40,40,40
	s40-17.909,40-40V128c0-8.837,7.163-16,16-16v304h-240V112z M313.052,112h56c13.255,0,24,10.745,24,24v134.056
	c0.004,40.834-33.094,73.94-73.928,73.944c-0.005,0-0.011,0-0.016,0h-6.056V112z M314.212,459.776
	c-1.363,2.63-4.094,4.265-7.056,4.224H46.948c-4.418,0.001-8.001-3.581-8.001-7.999c0-1.581,0.468-3.126,1.345-4.441L53.332,432
	h247.44l13.04,19.56C315.483,454.004,315.638,457.181,314.212,459.776z M385.052,64c30.913,0.035,55.965,25.087,56,56v143.432
	c0.001,70.785-57.216,128.255-128,128.568v-32h6.056c49.675,0,89.944-40.269,89.944-89.944V136c-0.026-22.08-17.92-39.974-40-40
	H327.58c0.948-2.562,1.445-5.268,1.472-8V64H385.052z M41.052,24c0-4.418,3.582-8,8-8h256c4.418,0,8,3.582,8,8v64
	c0,4.418-3.582,8-8,8h-8c-17.673,0-32,14.327-32,32v232c0,13.255-10.745,24-24,24c-13.255,0-24-10.745-24-24V128
	c0-17.673-14.327-32-32-32s-32,14.327-32,32v56c0,13.255-10.745,24-24,24s-24-10.745-24-24v-56c0-17.673-14.327-32-32-32h-24
	c-4.418,0-8-3.582-8-8V24z"/>
<g>
</g>
<g>
</g>
<g>
</g>
<g>
</g>
<g>
</g>
<g>
</g>
<g>
</g>
<g>
</g>
<g>
</g>
<g>
</g>
<g>
</g>
<g>
</g>
<g>
</g>
<g>
</g>
<g>
</g>
</svg>
