<?xml version="1.0" encoding="iso-8859-1"?>
<!-- Generator: Adobe Illustrator 19.0.0, SVG Export Plug-In . SVG Version: 6.00 Build 0)  -->
<svg version="1.1" id="Capa_1" xmlns="http://www.w3.org/2000/svg" xmlns:xlink="http://www.w3.org/1999/xlink" x="0px" y="0px"
	 viewBox="0 0 480.021 480.021" style="enable-background:new 0 0 480.021 480.021;" xml:space="preserve">
<g>
	<path style="fill:#A65A14;" d="M24.012,168.011h432c8.837,0,16-7.163,16-16c0-53.019-42.981-96-96-96h-272
		c-53.019,0-96,42.981-96,96C8.012,160.847,15.175,168.011,24.012,168.011z"/>
	<path style="fill:#A65A14;" d="M72.012,424.011h336c35.346,0,64-28.654,64-64c0-8.837-7.163-16-16-16h-432c-8.837,0-16,7.163-16,16
		C8.012,395.357,36.665,424.011,72.012,424.011z"/>
</g>
<path style="fill:#763A02;" d="M36.012,208.011h408c15.464,0,28,12.536,28,28l0,0c0,15.464-12.536,28-28,28h-408
	c-15.464,0-28-12.536-28-28l0,0C8.012,220.547,20.548,208.011,36.012,208.011z"/>
<path style="fill:#33BC00;" d="M460.012,168.011h-440c-6.627,0-12,5.373-12,12c0,11.046,8.954,20,20,20h3.712
	c5.305-0.001,10.393,2.105,14.144,5.856l20,20c7.809,7.812,20.473,7.813,28.284,0.004c0.001-0.001,0.002-0.002,0.004-0.004
	l11.712-11.712c7.809-7.812,20.473-7.813,28.284-0.004c0.001,0.001,0.002,0.002,0.004,0.004l11.712,11.712
	c7.809,7.812,20.473,7.813,28.284,0.004c0.001-0.001,0.002-0.002,0.004-0.004l11.712-11.712c7.809-7.812,20.473-7.813,28.284-0.004
	c0.001,0.001,0.002,0.002,0.004,0.004l11.712,11.712c7.809,7.812,20.473,7.813,28.284,0.004c0.001-0.001,0.003-0.002,0.004-0.004
	l11.712-11.712c7.809-7.812,20.473-7.813,28.284-0.004c0.001,0.001,0.002,0.002,0.004,0.004l11.712,11.712
	c7.809,7.812,20.473,7.813,28.284,0.004c0.001-0.001,0.002-0.002,0.004-0.004l11.712-11.712c7.809-7.812,20.473-7.813,28.284-0.004
	c0.001,0.001,0.002,0.002,0.004,0.004l11.712,11.712c7.809,7.812,20.473,7.813,28.284,0.004c0.001-0.001,0.002-0.002,0.004-0.004
	l20-20c3.751-3.751,8.839-5.857,14.144-5.856h3.712c11.046,0,20-8.954,20-20C472.012,173.383,466.639,168.011,460.012,168.011
	L460.012,168.011z"/>
<path style="fill:#DE0418;" d="M32.012,296.011h416c13.255,0,24,10.745,24,24l0,0c0,13.255-10.745,24-24,24h-416
	c-13.255,0-24-10.745-24-24l0,0C8.012,306.756,18.757,296.011,32.012,296.011z"/>
<path style="fill:#FDB62F;" d="M304.012,376.011c8.837,0,16-7.163,16-16v-48c0-8.837,7.163-16,16-16s16,7.163,16,16s7.163,16,16,16
	s16-7.163,16-16s7.163-16,16-16h48c8.837,0,16-7.163,16-16s-7.163-16-16-16h-424c-8.837,0-16,7.163-16,16s7.163,16,16,16h25.376
	c4.243,0.001,8.312,1.687,11.312,4.688l79.496,79.496c6.248,6.249,16.378,6.25,22.627,0.002c0.165-0.165,0.327-0.334,0.485-0.506
	l71.952-78.496c3.031-3.304,7.309-5.184,11.792-5.184h24.96c8.837,0,16,7.163,16,16v48
	C288.012,368.847,295.175,376.011,304.012,376.011z"/>
<path d="M480.012,180.011c-0.015-4.919-1.857-9.658-5.168-13.296c3.327-4.181,5.148-9.361,5.168-14.704
	c-0.066-57.41-46.59-103.934-104-104h-272c-57.41,0.066-103.934,46.59-104,104c0.02,5.343,1.841,10.523,5.168,14.704
	c-3.311,3.638-5.153,8.377-5.168,13.296c0.01,11.156,6.642,21.242,16.88,25.672c-16.746,10.37-21.914,32.352-11.543,49.098
	c1.312,2.119,2.843,4.094,4.567,5.894c-10.654,7.646-13.091,22.481-5.445,33.135c1.193,1.662,2.596,3.163,4.173,4.465
	c-11.517,12.187-11.517,31.245,0,43.432c-5.452,4.517-8.614,11.224-8.632,18.304c0.044,39.746,32.254,71.956,72,72h336
	c39.746-0.044,71.956-32.254,72-72c-0.024-7.076-3.19-13.776-8.64-18.288c12.005-12.716,11.428-32.756-1.288-44.761
	c-0.955-0.902-1.965-1.743-3.024-2.519c6.978-8.982,6.537-21.668-1.048-30.144c15.656-11.973,18.642-34.372,6.668-50.028
	c-2.618-3.423-5.834-6.343-9.492-8.62C473.393,201.208,479.998,191.142,480.012,180.011L480.012,180.011z M272.012,288.011h-24.96
	c-6.727,0.008-13.144,2.831-17.696,7.784l-46.968,51.2l-24.984,27.256c-2.989,3.253-8.05,3.468-11.304,0.478
	c-0.082-0.075-0.162-0.152-0.24-0.23l-38.536-38.488l-40.968-40.968c-4.49-4.516-10.6-7.048-16.968-7.032H24.012
	c-4.418,0-8-3.582-8-8s3.582-8,8-8h424c4.418,0,8,3.582,8,8s-3.582,8-8,8h-48c-13.255,0-24,10.745-24,24c0,4.418-3.582,8-8,8
	s-8-3.582-8-8c0-13.255-10.745-24-24-24s-24,10.745-24,24v48c0,4.418-3.582,8-8,8s-8-3.582-8-8v-48
	C296.012,298.756,285.266,288.011,272.012,288.011z M280.012,312.011v24h-65.816l26.952-29.408c1.517-1.654,3.66-2.594,5.904-2.592
	h24.96C276.43,304.011,280.012,307.592,280.012,312.011L280.012,312.011z M32.012,304.011h17.376c2.12,0.008,4.152,0.85,5.656,2.344
	L84.7,336.011H32.012c-8.837,0-16-7.163-16-16S23.175,304.011,32.012,304.011z M408.012,416.011h-336
	c-30.913-0.035-55.965-25.087-56-56c0-4.418,3.582-8,8-8H100.7l33.84,33.84c4.479,4.518,10.582,7.051,16.944,7.032h0.528
	c6.549-0.117,12.76-2.93,17.168-7.776l30.352-33.096h80.48v8c0,13.255,10.745,24,24,24s24-10.745,24-24v-8h128c4.418,0,8,3.582,8,8
	C463.976,390.924,438.925,415.975,408.012,416.011z M448.012,336.011h-120v-24c0-4.418,3.582-8,8-8s8,3.582,8,8
	c0,13.255,10.745,24,24,24s24-10.745,24-24c0-4.418,3.582-8,8-8h48c8.837,0,16,7.163,16,16S456.848,336.011,448.012,336.011z
	 M464.012,236.011c0,11.046-8.954,20-20,20h-408c-11.046,0.019-20.016-8.919-20.035-19.965c-0.017-9.969,7.309-18.429,17.179-19.835
	c0.946-0.134,1.9-0.201,2.856-0.2H44.7l15.52,15.52c10.934,10.931,28.658,10.931,39.592,0l11.72-11.712
	c4.686-4.685,12.282-4.685,16.968,0l11.72,11.72c10.934,10.931,28.658,10.931,39.592,0l11.72-11.712
	c4.686-4.685,12.282-4.685,16.968,0l11.72,11.72c10.934,10.931,28.658,10.931,39.592,0l11.72-11.712
	c4.686-4.685,12.282-4.685,16.968,0l11.72,11.72c10.934,10.931,28.658,10.931,39.592,0l11.72-11.712
	c4.686-4.685,12.282-4.685,16.968,0l11.72,11.72c10.943,10.909,28.649,10.909,39.592,0l15.512-15.552h8.688
	C455.057,216.011,464.012,224.965,464.012,236.011L464.012,236.011z M452.012,192.011h-3.72c-7.431-0.024-14.562,2.93-19.8,8.2
	l-20,20c-4.686,4.685-12.282,4.685-16.968,0l-11.712-11.72c-10.943-10.909-28.649-10.909-39.592,0l-11.72,11.712
	c-4.686,4.685-12.282,4.685-16.968,0l-11.72-11.712c-10.934-10.931-28.658-10.931-39.592,0l-11.72,11.712
	c-4.686,4.685-12.282,4.685-16.968,0l-11.72-11.712c-10.934-10.931-28.658-10.931-39.592,0l-11.72,11.712
	c-4.686,4.685-12.282,4.685-16.968,0l-11.72-11.712c-10.934-10.931-28.658-10.931-39.592,0L88.5,220.203
	c-4.686,4.685-12.282,4.685-16.968,0l-20-20c-5.239-5.269-12.37-8.219-19.8-8.192h-3.72c-6.627,0-12-5.373-12-12
	c0-2.209,1.791-4,4-4h440c2.209,0,4,1.791,4,4C464.012,186.638,458.639,192.011,452.012,192.011z M456.012,160.011h-432
	c-4.418,0-8-3.582-8-8c0.053-48.579,39.421-87.947,88-88h272c48.579,0.053,87.947,39.421,88,88
	C464.012,156.429,460.43,160.011,456.012,160.011z"/>
<path d="M104.012,80.011h16v16h-16V80.011z"/>
<path d="M136.012,112.011h16v16h-16V112.011z"/>
<path d="M168.012,80.011h16v16h-16V80.011z"/>
<path d="M200.012,112.011h16v16h-16V112.011z"/>
<path d="M232.012,80.011h16v16h-16V80.011z"/>
<path d="M264.012,112.011h16v16h-16V112.011z"/>
<path d="M296.012,80.011h16v16h-16V80.011z"/>
<path d="M328.012,112.011h16v16h-16V112.011z"/>
<path d="M360.012,80.011h16v16h-16V80.011z"/>
<g>
</g>
<g>
</g>
<g>
</g>
<g>
</g>
<g>
</g>
<g>
</g>
<g>
</g>
<g>
</g>
<g>
</g>
<g>
</g>
<g>
</g>
<g>
</g>
<g>
</g>
<g>
</g>
<g>
</g>
</svg>
