<?xml version="1.0" encoding="iso-8859-1"?>
<!-- Generator: Adobe Illustrator 19.0.0, SVG Export Plug-In . SVG Version: 6.00 Build 0)  -->
<svg version="1.1" id="Capa_1" xmlns="http://www.w3.org/2000/svg" xmlns:xlink="http://www.w3.org/1999/xlink" x="0px" y="0px"
	 viewBox="0 0 480 480" style="enable-background:new 0 0 480 480;" xml:space="preserve">
<path style="fill:#B3B3B3;" d="M240,88L240,88c83.947,0,152,68.053,152,152l0,0c0,83.947-68.053,152-152,152l0,0
	c-83.947,0-152-68.053-152-152l0,0C88,156.053,156.053,88,240,88z"/>
<g>
	<path style="fill:#FCE9CC;" d="M184,328h16c8.837,0,16-7.163,16-16s7.163-16,16-16c8.837,0,16-7.163,16-16s7.163-16,16-16
		s16-7.163,16-16v-16l32,32v16c0,8.837-7.163,16-16,16s-16,7.163-16,16s-7.163,16-16,16s-16,7.163-16,16s-7.163,16-16,16h-16
		L184,328z"/>
	<path style="fill:#FCE9CC;" d="M155.032,156.968l-30.056,30.056c-3.182,3.183-4.969,7.499-4.968,12v33.944
		c-0.001,4.501,1.786,8.817,4.968,12l14.056,14.056c3.182,3.183,4.969,7.499,4.968,12c-0.004,9.371,7.589,16.972,16.96,16.976
		c0.003,0,0.005,0,0.008,0h16c4.501,0.001,8.817-1.786,12-4.968l22.056-22.056c3.183-3.182,7.499-4.969,12-4.968
		c9.371,0.004,16.972-7.589,16.976-16.96c0-0.005,0-0.011,0-0.016v-32c0.001-4.501-1.786-8.817-4.968-12l-14.056-14.056
		c-3.182-3.183-4.969-7.499-4.968-12c0.004-9.371-7.589-16.972-16.96-16.976c-0.005,0-0.011,0-0.016,0h-32
		C162.531,151.999,158.215,153.786,155.032,156.968L155.032,156.968z"/>
</g>
<path style="fill:#E6E6E6;" d="M472,67.672V248h-32c-8.837,0-16-7.163-16-16V127.32c0.001-25.46,10.116-49.877,28.12-67.88
	c4.551-4.546,11.926-4.542,16.473,0.009C470.772,61.631,471.998,64.588,472,67.672L472,67.672z"/>
<g>
	<path style="fill:#B3B3B3;" d="M440,248h32v160c0,8.837-7.163,16-16,16s-16-7.163-16-16V248z"/>
	<path style="fill:#B3B3B3;" d="M24,184h32v224c0,8.837-7.163,16-16,16s-16-7.163-16-16V184z"/>
</g>
<path style="fill:#FDB62F;" d="M176,192L176,192c13.255,0,24,10.745,24,24l0,0c0,13.255-10.745,24-24,24l0,0
	c-13.255,0-24-10.745-24-24l0,0C152,202.745,162.745,192,176,192z"/>
<path style="fill:#7C440F;" d="M278.624,126.624c-8.837-8.837-23.163-8.837-32,0c-8.837,8.837-8.837,23.163,0,32L248,160h64
	L278.624,126.624z"/>
<path style="fill:#A65A14;" d="M312,160h-64l40,40h64L312,160z"/>
<path style="fill:#7C440F;" d="M352,200h-64l33.376,33.376c8.837,8.837,23.163,8.837,32,0c8.837-8.837,8.837-23.163,0-32L352,200z"
	/>
<path style="fill:#E6E6E6;" d="M0,112v40c0,22.091,17.909,40,40,40s40-17.909,40-40v-40H0z"/>
<path style="fill:#C64940;" d="M232,328c0-8.837,7.163-16,16-16c8.837,0,16-7.163,16-16s7.163-16,16-16s16-7.163,16-16v-16l-16-16
	v16c0,8.837-7.163,16-16,16s-16,7.163-16,16s-7.163,16-16,16c-8.837,0-16,7.163-16,16s-7.163,16-16,16h-16l16,16h16
	C224.837,344,232,336.837,232,328z"/>
<path d="M240,80c-88.366,0-160,71.634-160,160s71.634,160,160,160s160-71.634,160-160C399.899,151.677,328.324,80.101,240,80z
	 M240,384c-79.529,0-144-64.471-144-144S160.471,96,240,96s144,64.471,144,144C383.907,319.491,319.491,383.907,240,384z"/>
<path d="M467.864,49.52c-7.338-3.058-15.797-1.376-21.408,4.256C426.891,73.241,415.925,99.722,416,127.32V232
	c0.042,10.134,6.445,19.15,16,22.528V408c0,13.255,10.745,24,24,24s24-10.745,24-24V67.672
	C480.016,59.718,475.22,52.545,467.864,49.52L467.864,49.52z M464,408c0,4.418-3.582,8-8,8s-8-3.582-8-8V256h16V408z M440,240
	c-4.418,0-8-3.582-8-8V127.32c-0.06-23.351,9.221-45.756,25.776-62.224c0.645-0.69,1.544-1.086,2.488-1.096
	c0.512,0.006,1.017,0.112,1.488,0.312c1.393,0.526,2.296,1.88,2.248,3.368V240H440z"/>
<path d="M208,216c0-17.673-14.327-32-32-32s-32,14.327-32,32s14.327,32,32,32S208,233.673,208,216z M176,232
	c-8.837,0-16-7.163-16-16s7.163-16,16-16s16,7.163,16,16S184.837,232,176,232z"/>
<path d="M194.624,288.688l22.064-22.064c1.688-1.674,3.967-2.617,6.344-2.624c13.782-0.018,24.95-11.186,24.968-24.968v-32
	c0.019-6.626-2.614-12.984-7.312-17.656l-14.064-14.064c-1.688-1.679-2.633-3.964-2.624-6.344
	c-0.018-13.782-11.186-24.95-24.968-24.968h-32c-6.619,0.017-12.963,2.645-17.656,7.312l-30.064,30.064
	c-4.698,4.672-7.331,11.03-7.312,17.656v33.936c-0.019,6.626,2.614,12.984,7.312,17.656l14.064,14.064
	c1.688,1.679,2.633,3.964,2.624,6.344c0.018,13.782,11.186,24.95,24.968,24.968h16C183.587,295.983,189.931,293.355,194.624,288.688
	L194.624,288.688z M152,271.032c0.019-6.626-2.614-12.984-7.312-17.656l-14.064-14.064c-1.688-1.679-2.633-3.964-2.624-6.344
	v-33.936c-0.009-2.38,0.936-4.665,2.624-6.344l30.064-30.064c1.688-1.674,3.967-2.617,6.344-2.624h32
	c4.951,0.004,8.964,4.017,8.968,8.968c-0.019,6.626,2.614,12.984,7.312,17.656l14.064,14.064c1.688,1.679,2.633,3.964,2.624,6.344
	v32c-0.004,4.951-4.017,8.964-8.968,8.968c-6.619,0.017-12.963,2.645-17.656,7.312l-22.064,22.064
	c-1.688,1.674-3.967,2.617-6.344,2.624h-16C156.017,279.996,152.004,275.983,152,271.032L152,271.032z"/>
<path d="M285.656,226.344c-3.125-3.124-8.19-3.123-11.314,0.002c-1.499,1.5-2.342,3.534-2.342,5.654v16c0,4.418-3.582,8-8,8
	c-13.255,0-24,10.745-24,24c0,4.418-3.582,8-8,8c-13.255,0-24,10.745-24,24c0,4.418-3.582,8-8,8h-16
	c-4.418,0.001-7.999,3.583-7.998,8.002c0,2.121,0.843,4.154,2.342,5.654l32,32c1.5,1.5,3.534,2.344,5.656,2.344h16
	c13.255,0,24-10.745,24-24c0-4.418,3.582-8,8-8c13.255,0,24-10.745,24-24c0-4.418,3.582-8,8-8c13.255,0,24-10.745,24-24v-16
	c0-2.122-0.844-4.156-2.344-5.656L285.656,226.344z M304,280c0,4.418-3.582,8-8,8c-13.255,0-24,10.745-24,24c0,4.418-3.582,8-8,8
	c-13.255,0-24,10.745-24,24c0,4.418-3.582,8-8,8h-12.688l-16.2-16.2c11.951-1.563,20.889-11.747,20.888-23.8c0-4.418,3.582-8,8-8
	c13.255,0,24-10.745,24-24c0-4.418,3.582-8,8-8c12.053,0.001,22.237-8.937,23.8-20.888l16.2,16.2V280z"/>
<path d="M284.28,120.976c-11.962-11.958-31.354-11.954-43.312,0.008s-11.954,31.354,0.008,43.312l0,0l1.376,1.368l40,40
	l33.376,33.368c11.962,11.958,31.354,11.954,43.312-0.008s11.954-31.354-0.008-43.312l0,0l-1.376-1.368l-40-40L284.28,120.976z
	 M262.624,128c3.876,0.012,7.592,1.55,10.344,4.28l19.72,19.72h-41.296c-5.174-6.208-4.336-15.434,1.872-20.608
	c2.619-2.183,5.919-3.383,9.328-3.392H262.624z M337.376,232c-3.878-0.013-7.595-1.553-10.344-4.288L307.312,208h41.296
	c5.174,6.208,4.336,15.434-1.872,20.608c-2.619,2.183-5.919,3.383-9.328,3.392H337.376z M291.312,192l-24-24h41.376l24,24H291.312z"
	/>
<path d="M80,152V48H64v64H48V48H32v64H16V48H0v104c0.039,12.523,5.965,24.299,16,31.792V408c0,13.255,10.745,24,24,24
	s24-10.745,24-24V183.792C74.035,176.299,79.961,164.523,80,152z M48,192v216c0,4.418-3.582,8-8,8s-8-3.582-8-8V192H48z M64,152
	c0,13.255-10.745,24-24,24s-24-10.745-24-24v-24h48V152z"/>
<g>
</g>
<g>
</g>
<g>
</g>
<g>
</g>
<g>
</g>
<g>
</g>
<g>
</g>
<g>
</g>
<g>
</g>
<g>
</g>
<g>
</g>
<g>
</g>
<g>
</g>
<g>
</g>
<g>
</g>
</svg>
