<svg height="512" viewBox="0 0 512 512" width="512" xmlns="http://www.w3.org/2000/svg"><g id="filled_outline" data-name="filled outline"><path d="m24 136h464v352h-464z" fill="#fdb62f"/><ellipse cx="152" cy="340" fill="#fda909" rx="96" ry="20"/><rect fill="#eaeaea" height="96" rx="48" width="240" x="72" y="248"/><ellipse cx="292" cy="452" fill="#fda909" rx="116" ry="20"/><rect fill="#eaeaea" height="96" rx="48" width="240" x="200" y="360"/><path d="m200 152v56a24 24 0 0 0 24 24h16a24 24 0 0 0 24-24v-56z" fill="#00341c"/><rect fill="#eaeaea" height="64" rx="32" width="64" x="200" y="120"/><path d="m296 152v56a24 24 0 0 0 24 24h16a24 24 0 0 0 24-24v-56z" fill="#00341c"/><rect fill="#eaeaea" height="64" rx="32" width="64" x="296" y="120"/><path d="m392 152v56a24 24 0 0 0 24 24h16a24 24 0 0 0 24-24v-56z" fill="#00341c"/><rect fill="#eaeaea" height="64" rx="32" width="64" x="392" y="120"/><path d="m80 280h224a24 24 0 0 0 24-24 40 40 0 0 0 -40-40h-192a40 40 0 0 0 -40 40 24 24 0 0 0 24 24z" fill="#f76012"/><path d="m488 88-464-8v-24h464z" fill="#a65a14"/><path d="m24 56h464v-32l-464 8z" fill="#763a02"/><path d="m168 216h48v128h-48z" fill="#052d1a"/><ellipse cx="88" cy="436" fill="#fda909" rx="40" ry="12"/><path d="m96 440a24 24 0 0 0 24-24 38.628 38.628 0 0 0 -11.314-27.314l-12.686-12.686-12.686 12.686a38.628 38.628 0 0 0 -11.314 27.314 24 24 0 0 0 24 24z" fill="#8cc63f"/><path d="m208 392h224a24 24 0 0 0 24-24 40 40 0 0 0 -40-40h-192a40 40 0 0 0 -40 40 24 24 0 0 0 24 24z" fill="#f76012"/><path d="m431.149 330.978a398.166 398.166 0 0 1 -199.149 53.022 404.51 404.51 0 0 1 -43.753-2.373 23.968 23.968 0 0 0 19.753 10.373h224a24 24 0 0 0 24-24 40 40 0 0 0 -24.851-37.022z" fill="#c44c0e"/><g fill="#f7af7c"><path d="m202.776 334.089 57.91 57.911h22.627l-63.755-63.755a39.748 39.748 0 0 0 -16.782 5.844z"/><path d="m356.686 328 64 64h11.314a23.918 23.918 0 0 0 9.4-1.912l-62.087-62.088z"/><path d="m343.958 392h24.084l-72-64h-24.084z"/></g><path d="m383.145 354.458 37.542 37.542h11.313a23.918 23.918 0 0 0 9.4-1.912l-42.48-42.482q-7.801 3.587-15.775 6.852z" fill="#c48b62"/><path d="m323.2 373.551 20.758 18.449h24.084l-26.186-23.276q-9.237 2.633-18.656 4.827z" fill="#c48b62"/><path d="m252.184 383.5 8.5 8.5h22.626l-10.1-10.1q-10.435 1.069-21.026 1.6z" fill="#c48b62"/><path d="m306.566 220.572a398.2 398.2 0 0 1 -194.566 50.428 403.6 403.6 0 0 1 -53.067-3.5 23.994 23.994 0 0 0 21.067 12.5h224a24 24 0 0 0 24-24 39.986 39.986 0 0 0 -21.434-35.428z" fill="#c44c0e"/><path d="m228.687 216 64 64h11.313a23.918 23.918 0 0 0 9.4-1.912l-62.087-62.088z" fill="#f7af7c"/><path d="m256.7 244.016 35.987 35.984h11.313a23.918 23.918 0 0 0 9.4-1.912l-40.686-40.688q-7.914 3.478-16.014 6.616z" fill="#c48b62"/><path d="m215.958 280h24.084l-72-64h-24.084z" fill="#f7af7c"/><path d="m195.908 262.178 20.05 17.822h24.084l-25.159-22.363q-9.399 2.495-18.975 4.541z" fill="#c48b62"/><path d="m168 216h48v64h-48z" fill="#00341c"/><path d="m168 267.111v12.889h48v-22.658a397.851 397.851 0 0 1 -48 9.769z" fill="#052d1a"/><path d="m74.776 222.089 57.911 57.911h22.626l-63.755-63.755a39.748 39.748 0 0 0 -16.782 5.844z" fill="#f7af7c"/><path d="m123.518 270.832 9.169 9.168h22.626l-10.346-10.347q-10.649.869-21.449 1.179z" fill="#c48b62"/><path d="m24 496h464a8 8 0 0 0 8-8v-352a8 8 0 0 0 -8-8h-32.02a39.96 39.96 0 0 0 -63.96 0h-32.04a39.96 39.96 0 0 0 -63.96 0h-32.04a39.96 39.96 0 0 0 -63.96 0h-176.02a8 8 0 0 0 -8 8v352a8 8 0 0 0 8 8zm376-312.019a39.924 39.924 0 0 0 48 0v24.019a16.019 16.019 0 0 1 -16 16h-16a16.019 16.019 0 0 1 -16-16zm24-55.981a24 24 0 1 1 -24 24 24.028 24.028 0 0 1 24-24zm-119.751 82.832a16.181 16.181 0 0 1 -.249-2.832v-24.019a39.924 39.924 0 0 0 48 0v24.019a16.019 16.019 0 0 1 -16 16h-12.253a48.164 48.164 0 0 0 -19.498-13.168zm127.751 197.168a40.045 40.045 0 0 1 -40 40h-144a40.045 40.045 0 0 1 -39.2-48h222.4a40.266 40.266 0 0 1 .8 8zm-312-72a40.045 40.045 0 0 1 -39.2-48h79.2v48zm40-64h-12.687l-48-48h60.687zm-79.373-44.059 44.06 44.059h-44.687a16.019 16.019 0 0 1 -16-16 32.025 32.025 0 0 1 16.627-28.059zm95.373-3.941h32v98.742a48.169 48.169 0 0 0 -19.747 13.258h-12.253zm32-40.019a39.924 39.924 0 0 0 48 0v24.019h-48zm60.958 152.019 54 48h-47.645l-48-48zm-44.958-112h12.687l48 48h-60.687zm-15.373 115.941 44.06 44.059h-44.687a16.019 16.019 0 0 1 -16-16 32.025 32.025 0 0 1 16.627-28.059zm223.373 44.059h-20.687l-48-48h52.687a32.036 32.036 0 0 1 32 32 16.019 16.019 0 0 1 -16 16zm-91.313-48 48 48h-41.645l-54-48zm-68.687-16v-16h-16v16h-32v-32h79.2a40.121 40.121 0 0 1 -7.2 32zm35.026-48.287-47.713-47.713h28.687a32.036 32.036 0 0 1 32 32 16.027 16.027 0 0 1 -12.974 15.713zm20.974-143.713a24 24 0 1 1 -24 24 24.028 24.028 0 0 1 24-24zm-39.2 16a40.028 40.028 0 0 0 -.8 8v56h-16v-56a40.028 40.028 0 0 0 -.8-8zm-56.8-16a24 24 0 1 1 -24 24 24.028 24.028 0 0 1 24-24zm-200 16h160.8a40.028 40.028 0 0 0 -.8 8v56h-96a48.055 48.055 0 0 0 -48 48 32.031 32.031 0 0 0 17.21 28.372 56.045 56.045 0 0 0 54.79 67.628h58.742a47.8 47.8 0 0 0 -2.742 16 32.031 32.031 0 0 0 17.21 28.372 56.045 56.045 0 0 0 54.79 67.628h144a56.045 56.045 0 0 0 54.79-67.628 32.031 32.031 0 0 0 17.21-28.372 48.055 48.055 0 0 0 -48-48h-101.4a56.2 56.2 0 0 0 4.186-35.628 32.031 32.031 0 0 0 17.214-28.372 47.8 47.8 0 0 0 -2.742-16h2.742a32.036 32.036 0 0 0 32-32v-56a40.028 40.028 0 0 0 -.8-8h17.6a40.028 40.028 0 0 0 -.8 8v56a32.036 32.036 0 0 0 32 32h16a32.036 32.036 0 0 0 32-32v-56a40.028 40.028 0 0 0 -.8-8h16.8v336h-448z"/><path d="m224 144h16v16h-16z"/><path d="m320 144h16v16h-16z"/><path d="m416 144h16v16h-16z"/><path d="m128 296h16v16h-16z"/><path d="m240 408h16v16h-16z"/><path d="m280 416h16v16h-16z"/><path d="m328 408h16v16h-16z"/><path d="m384 408h16v16h-16z"/><path d="m101.657 370.343a8 8 0 0 0 -11.314 0l-12.686 12.687a46.318 46.318 0 0 0 -13.657 32.97 32 32 0 0 0 64 0 46.318 46.318 0 0 0 -13.657-32.97zm-5.657 61.657a16.019 16.019 0 0 1 -16-16 30.43 30.43 0 0 1 8.97-21.657l7.03-7.029 7.03 7.029a30.43 30.43 0 0 1 8.97 21.657 16.019 16.019 0 0 1 -16 16z"/><path d="m23.862 88 464 8h.138a8 8 0 0 0 8-8v-64a8 8 0 0 0 -2.392-5.706 8.1 8.1 0 0 0 -5.746-2.294l-464 8a8 8 0 0 0 -7.862 8v48a8 8 0 0 0 7.862 8zm456.138-8.139-448-7.724v-8.137h448zm0-47.722v15.861h-448v-8.137z"/></g></svg>