<?xml version="1.0" encoding="iso-8859-1"?>
<!-- Generator: Adobe Illustrator 19.0.0, SVG Export Plug-In . SVG Version: 6.00 Build 0)  -->
<svg version="1.1" id="Capa_1" xmlns="http://www.w3.org/2000/svg" xmlns:xlink="http://www.w3.org/1999/xlink" x="0px" y="0px"
	 viewBox="0 0 480 480" style="enable-background:new 0 0 480 480;" xml:space="preserve">
<g>
	<path style="fill:#763A02;" d="M24,8h448v32H24c-8.837,0-16-7.163-16-16S15.163,8,24,8z"/>
	<path style="fill:#763A02;" d="M24,72h448v32H24c-8.837,0-16-7.163-16-16S15.163,72,24,72z"/>
</g>
<path style="fill:#E47700;" d="M176,432h128v40H176V432z"/>
<path style="fill:#FDB62F;" d="M56,288c0,83.947,68.053,152,152,152h64c83.947,0,152-68.053,152-152H56z"/>
<path style="fill:#FCE9CC;" d="M72,288c0-17.673,14.327-32,32-32c0-17.673,14.327-32,32-32c0-17.673,14.327-32,32-32
	c0-17.673,14.327-32,32-32c0-13.255,10.745-24,24-24h32c13.255,0,24,10.745,24,24c17.673,0,32,14.327,32,32
	c17.673,0,32,14.327,32,32c17.673,0,32,14.327,32,32c17.673,0,32,14.327,32,32H72z"/>
<path d="M24,0C10.745,0,0,10.745,0,24s10.745,24,24,24h456V0H24z M464,32H24c-4.418,0-8-3.582-8-8s3.582-8,8-8h440V32z"/>
<path d="M0,88c0,13.255,10.745,24,24,24h456V64H24C10.745,64,0,74.745,0,88z M464,96H24c-4.418,0-8-3.582-8-8s3.582-8,8-8h440V96z"
	/>
<path d="M424,280h-8.872c-3.264-15.927-15.826-28.303-31.8-31.328c-3.059-16.239-15.761-28.941-32-32
	c-3.059-16.239-15.761-28.941-32-32c-3.082-16.294-15.873-29.011-32.184-32C283.725,138.23,270.841,128.023,256,128h-32
	c-14.831,0.02-27.713,10.211-31.144,24.64c-16.311,2.989-29.102,15.706-32.184,32c-16.239,3.059-28.941,15.761-32,32
	c-16.239,3.059-28.941,15.761-32,32c-15.983,3.03-28.548,15.421-31.8,31.36H56c-4.418,0-8,3.582-8,8
	c0.131,72.875,49.451,136.471,120,154.736V480h144v-37.264C382.549,424.471,431.869,360.875,432,288
	C432,283.582,428.418,280,424,280z M104,264h8v-8c0-13.255,10.745-24,24-24h8v-8c0-13.255,10.745-24,24-24h8v-8
	c0-13.255,10.745-24,24-24h8v-8c0-8.837,7.163-16,16-16h32c8.837,0,16,7.163,16,16v8h8c13.255,0,24,10.745,24,24v8h8
	c13.255,0,24,10.745,24,24v8h8c13.255,0,24,10.745,24,24v8h8c10.169,0.01,19.231,6.417,22.632,16H81.368
	C84.769,270.417,93.831,264.01,104,264L104,264z M296,448v16H184v-16H296z M272,432h-64c-76.387-0.089-139.448-59.736-143.784-136
	h351.568C411.448,372.264,348.387,431.911,272,432z"/>
<path d="M136,248h16v16h-16V248z"/>
<path d="M192,216h16v16h-16V216z"/>
<path d="M280,232h16v16h-16V232z"/>
<path d="M256,184h16v16h-16V184z"/>
<path d="M224,160h16v16h-16V160z"/>
<path d="M240,248h16v16h-16V248z"/>
<path d="M336,248h16v16h-16V248z"/>
<g>
</g>
<g>
</g>
<g>
</g>
<g>
</g>
<g>
</g>
<g>
</g>
<g>
</g>
<g>
</g>
<g>
</g>
<g>
</g>
<g>
</g>
<g>
</g>
<g>
</g>
<g>
</g>
<g>
</g>
</svg>
