<?xml version="1.0" encoding="iso-8859-1"?>
<!-- Generator: Adobe Illustrator 19.0.0, SVG Export Plug-In . SVG Version: 6.00 Build 0)  -->
<svg version="1.1" id="Capa_1" xmlns="http://www.w3.org/2000/svg" xmlns:xlink="http://www.w3.org/1999/xlink" x="0px" y="0px"
	 viewBox="0 0 480 480" style="enable-background:new 0 0 480 480;" xml:space="preserve">
<path style="fill:#A65A14;" d="M192.001,424V268.12c0.001-18.003-7.15-35.269-19.88-48l-96.24-96.24
	c-12.73-12.731-19.881-29.997-19.88-48C56.001,38.391,86.392,8,123.881,8c0,0,0,0,0,0h232.24c37.489,0,67.88,30.391,67.88,67.88l0,0
	v96c0.001,18.003-7.15,35.269-19.88,48l-8.232,8.232c-12.73,12.731-19.881,29.997-19.88,48V408c0,35.346-28.654,64-64,64h-72.008
	C213.491,472,192.001,450.51,192.001,424L192.001,424z"/>
<path style="fill:#FADBB7;" d="M240.001,376c-8.837,0-16-7.163-16-16V88c0-26.51-21.49-48-48-48h-24c-8.837,0-16-7.163-16-16
	s7.163-16,16-16h64c0,13.255,10.745,24,24,24c13.255,0,24-10.745,24-24h96c8.837,0,16,7.163,16,16s-7.163,16-16,16h-56
	c-26.51,0-48,21.49-48,48v272C256.001,368.837,248.837,376,240.001,376z"/>
<path style="fill:#7C440F;" d="M240.001,472h72c35.346,0,64-28.654,64-64V276.12c0.017-16.189,5.823-31.837,16.368-44.12h-0.368
	l-19.88,19.88c-18.006,18.005-28.121,42.425-28.12,67.888V408c0,17.673-14.327,32-32,32h-72c-8.837,0-16-7.163-16-16v-8
	c0-8.837-7.163-16-16-16h-16v24C192.001,450.51,213.491,472,240.001,472L240.001,472z"/>
<path d="M365.161,0.592c-1.693-0.384-3.424-0.583-5.16-0.592h-236.12C81.973-0.001,48,33.971,47.999,75.879
	c0,20.126,7.994,39.427,22.225,53.657l96.24,96.24c11.265,11.207,17.579,26.454,17.536,42.344V424c0.035,30.913,25.087,55.965,56,56
	h72c39.746-0.044,71.956-32.254,72-72V276.12c0-1.864,0.104-3.712,0.272-5.544c0.104-1.072,0.272-2.136,0.432-3.2
	c0.104-0.704,0.184-1.408,0.312-2.104c0.256-1.392,0.584-2.768,0.936-4.144c0.08-0.312,0.152-0.632,0.232-0.944
	c0.432-1.547,0.923-3.072,1.472-4.576l0.112-0.32c2.467-6.608,6.077-12.73,10.664-18.088v-0.048
	c0.992-1.152,1.984-2.296,3.072-3.384l8.232-8.232c14.291-14.193,22.309-33.515,22.264-53.656v-96
	C431.942,37.501,403.262,5.196,365.161,0.592L365.161,0.592z M253.777,16c-4.336,7.608-14.018,10.261-21.627,5.925
	c-2.471-1.408-4.517-3.455-5.925-5.925H253.777z M208.977,16c4.409,17.114,21.858,27.413,38.972,23.004
	c11.285-2.907,20.097-11.719,23.004-23.004h85.168c1.744,0,3.464,0.112,5.176,0.264c3.828,0.588,6.667,3.863,6.704,7.736
	c0,4.418-3.582,8-8,8h-56c-30.913,0.035-55.965,25.087-56,56v272c0,4.418-3.582,8-8,8s-8-3.582-8-8V88
	c-0.035-30.913-25.087-55.965-56-56h-24c-4.418,0-8-3.582-8-8s3.582-8,8-8H208.977z M368.001,408c-0.035,30.913-25.087,55.965-56,56
	h-72c-22.08-0.026-39.974-17.92-40-40v-16h8c4.418,0,8,3.582,8,8v8c0,13.255,10.745,24,24,24l0,0h72c22.08-0.026,39.974-17.92,40-40
	v-88.232c-0.051-18.346,5.676-36.243,16.368-51.152c-0.24,2.475-0.363,4.976-0.368,7.504V408z M416.001,171.88
	c0.043,15.89-6.271,31.137-17.536,42.344l-8.232,8.232c-0.968,0.968-1.832,2.008-2.744,3.024c-0.41,0.247-0.794,0.537-1.144,0.864
	l-19.88,19.88c-19.571,19.461-30.542,45.944-30.464,73.544V408c0,13.255-10.745,24-24,24h-72c-4.418,0-8-3.582-8-8v-8
	c0-13.255-10.745-24-24-24h-8V268.12c0.055-20.136-7.947-39.457-22.224-53.656l-96.24-96.24
	c-23.386-23.383-23.388-61.297-0.005-84.683C92.763,22.309,107.997,15.999,123.881,16h5.6c-0.95,2.562-1.451,5.268-1.48,8
	c0,13.255,10.745,24,24,24h24c22.08,0.026,39.974,17.92,40,40v272c0.011,13.255,10.764,23.991,24.019,23.981
	c13.24-0.011,23.97-10.741,23.981-23.981V88c0.026-22.08,17.92-39.974,40-40h56c13.255,0,24-10.745,24-24
	c0-0.384-0.096-0.744-0.112-1.128c19.721,10.33,32.088,30.745,32.112,53.008V171.88z"/>
<path d="M90.345,61.694l11.314-11.314l104.002,104.002l-11.314,11.314L90.345,61.694z"/>
<path d="M274.347,133.657l11.314-11.314l87.998,87.998l-11.314,11.314L274.347,133.657z"/>
<path d="M274.342,229.657l11.314-11.314l47.999,47.999l-11.314,11.314L274.342,229.657z"/>
<path d="M298.344,69.632l11.314-11.314l96.003,96.003l-11.314,11.314L298.344,69.632z"/>
<path d="M274.343,325.651l11.314-11.314l40,40l-11.314,11.314L274.343,325.651z"/>
<g>
</g>
<g>
</g>
<g>
</g>
<g>
</g>
<g>
</g>
<g>
</g>
<g>
</g>
<g>
</g>
<g>
</g>
<g>
</g>
<g>
</g>
<g>
</g>
<g>
</g>
<g>
</g>
<g>
</g>
</svg>
