<?xml version="1.0" encoding="iso-8859-1"?>
<!-- Generator: Adobe Illustrator 19.0.0, SVG Export Plug-In . SVG Version: 6.00 Build 0)  -->
<svg version="1.1" id="Capa_1" xmlns="http://www.w3.org/2000/svg" xmlns:xlink="http://www.w3.org/1999/xlink" x="0px" y="0px"
	 viewBox="0 0 480 480" style="enable-background:new 0 0 480 480;" xml:space="preserve">
<path style="fill:#6CBBC7;" d="M8,344h464c0,44.183-35.817,80-80,80H88C43.817,424,8,388.183,8,344z"/>
<path style="fill:#B3B3B3;" d="M310.632,80c-12.374,0.033-24.248-4.884-32.976-13.656C265.935,54.561,249.988,47.956,233.368,48H200
	v112h33.368c16.62,0.045,32.567-6.561,44.288-18.344c8.728-8.772,20.602-13.689,32.976-13.656H480V80H310.632z"/>
<path style="fill:#FED382;" d="M168,80h32v264h-32V80z"/>
<path style="fill:#FDB62F;" d="M136,80h32v264h-32V80z"/>
<path style="fill:#FEE2AC;" d="M104,80h32v264h-32V80z"/>
<path style="fill:#FDB62F;" d="M248,312h192c8.837,0,16,7.163,16,16l0,0c0,8.837-7.163,16-16,16H248c-8.837,0-16-7.163-16-16l0,0
	C232,319.164,239.163,312,248,312z"/>
<path style="fill:#FEE2AC;" d="M264,280h160c8.837,0,16,7.163,16,16l0,0c0,8.837-7.163,16-16,16H264c-8.837,0-16-7.163-16-16l0,0
	C248,287.164,255.163,280,264,280z"/>
<path style="fill:#FED382;" d="M400,264c0-8.837-7.163-16-16-16h-20.12c-12.731-0.002-24.941,5.055-33.944,14.056l-27.88,27.88
	c-9.001,9.003-14.057,21.213-14.056,33.944V376c0,8.837,7.163,16,16,16s16-7.163,16-16v-49.376
	c0.001-4.243,1.687-8.312,4.688-11.312l30.624-30.624c3-3.001,7.069-4.687,11.312-4.688H384C392.837,280,400,272.837,400,264z"/>
<path d="M208,160h25.368c16.62,0.045,32.567-6.561,44.288-18.344c8.728-8.772,20.602-13.689,32.976-13.656H480V80H310.632
	c-12.374,0.033-24.248-4.884-32.976-13.656C265.935,54.561,249.988,47.956,233.368,48H80v16h112v16H80v16h16v16H80v16h16v16H80v16
	h16v176H0v8c0.053,48.579,39.421,87.947,88,88h304c48.579-0.053,87.947-39.421,88-88v-8h-17.472c0.948-2.562,1.446-5.268,1.472-8
	c-0.046-10.813-7.318-20.261-17.76-23.072c4.979-12.231-0.899-26.184-13.131-31.163c-2.892-1.177-5.987-1.777-9.109-1.765h-17.472
	c0.948-2.562,1.446-5.268,1.472-8c0-13.255-10.745-24-24-24h-20.12c-14.862-0.042-29.123,5.866-39.6,16.408L308.688,272H264
	c-13.206-0.051-23.953,10.613-24.005,23.819c-0.012,3.122,0.587,6.217,1.765,9.109C231.318,307.74,224.046,317.187,224,328
	c0.026,2.732,0.524,5.438,1.472,8H208L208,160z M208,64h25.368c12.374-0.033,24.248,4.884,32.976,13.656
	C278.065,89.439,294.012,96.045,310.632,96H464v16H310.632c-16.62-0.045-32.567,6.561-44.288,18.344
	c-8.728,8.772-20.602,13.689-32.976,13.656H208L208,64z M192,96v240h-16V96H192z M160,96v240h-16V96H160z M112,96h16v240h-16V96z
	 M440,336H328v-9.376c0.008-2.12,0.85-4.152,2.344-5.656l0.968-0.968H440c4.418,0,8,3.582,8,8S444.418,336,440,336z M432,296
	c0,4.418-3.582,8-8,8h-76.688l13.656-13.656c1.502-1.502,3.54-2.346,5.664-2.344H424C428.418,288,432,291.582,432,296L432,296z
	 M335.6,267.72c7.482-7.528,17.666-11.749,28.28-11.72H384c4.418,0,8,3.582,8,8s-3.582,8-8,8h-17.368
	c-6.371-0.017-12.483,2.515-16.976,7.032l-27.312,27.312l-3.312,3.312c-4.516,4.49-7.048,10.6-7.032,16.968V376c0,4.418-3.582,8-8,8
	s-8-3.582-8-8v-52.12c0.02-3.34,0.458-6.665,1.304-9.896c1.762-6.938,5.354-13.275,10.4-18.352L331.32,272L335.6,267.72z M264,288
	h29.008c-0.224,0.264-0.376,0.584-0.6,0.856c-1.426,1.784-2.741,3.654-3.936,5.6c-0.28,0.464-0.616,0.88-0.888,1.352
	c-1.407,2.459-2.627,5.021-3.648,7.664c-0.064,0.168-0.168,0.32-0.232,0.496H264c-4.418,0-8-3.582-8-8s3.582-8,8-8L264,288z
	 M240,328c0-4.418,3.582-8,8-8h32.144c-0.096,1.304-0.144,2.6-0.144,3.88V336h-32C243.582,336,240,332.418,240,328z M248,352h32v24
	c0,13.255,10.745,24,24,24s24-10.745,24-24v-24h135.56c-4.12,36.421-34.907,63.956-71.56,64H88c-36.653-0.044-67.44-27.579-71.56-64
	H248z"/>
<g>
</g>
<g>
</g>
<g>
</g>
<g>
</g>
<g>
</g>
<g>
</g>
<g>
</g>
<g>
</g>
<g>
</g>
<g>
</g>
<g>
</g>
<g>
</g>
<g>
</g>
<g>
</g>
<g>
</g>
</svg>
